<svg aria-roledescription="flowchart-v2" role="graphics-document document" viewBox="-8 -8 967.09375 936.4000244140625" style="max-width: 967.09375px;" xmlns:xlink="http://www.w3.org/1999/xlink" xmlns="http://www.w3.org/2000/svg" width="100%" id="mermaid-1783513246767"><style>#mermaid-1783513246767{font-family:"trebuchet ms",verdana,arial,sans-serif;font-size:16px;fill:#333;}#mermaid-1783513246767 .error-icon{fill:#552222;}#mermaid-1783513246767 .error-text{fill:#552222;stroke:#552222;}#mermaid-1783513246767 .edge-thickness-normal{stroke-width:2px;}#mermaid-1783513246767 .edge-thickness-thick{stroke-width:3.5px;}#mermaid-1783513246767 .edge-pattern-solid{stroke-dasharray:0;}#mermaid-1783513246767 .edge-pattern-dashed{stroke-dasharray:3;}#mermaid-1783513246767 .edge-pattern-dotted{stroke-dasharray:2;}#mermaid-1783513246767 .marker{fill:#333333;stroke:#333333;}#mermaid-1783513246767 .marker.cross{stroke:#333333;}#mermaid-1783513246767 svg{font-family:"trebuchet ms",verdana,arial,sans-serif;font-size:16px;}#mermaid-1783513246767 .label{font-family:"trebuchet ms",verdana,arial,sans-serif;color:#333;}#mermaid-1783513246767 .cluster-label text{fill:#333;}#mermaid-1783513246767 .cluster-label span,#mermaid-1783513246767 p{color:#333;}#mermaid-1783513246767 .label text,#mermaid-1783513246767 span,#mermaid-1783513246767 p{fill:#333;color:#333;}#mermaid-1783513246767 .node rect,#mermaid-1783513246767 .node circle,#mermaid-1783513246767 .node ellipse,#mermaid-1783513246767 .node polygon,#mermaid-1783513246767 .node path{fill:#ECECFF;stroke:#9370DB;stroke-width:1px;}#mermaid-1783513246767 .flowchart-label text{text-anchor:middle;}#mermaid-1783513246767 .node .katex path{fill:#000;stroke:#000;stroke-width:1px;}#mermaid-1783513246767 .node .label{text-align:center;}#mermaid-1783513246767 .node.clickable{cursor:pointer;}#mermaid-1783513246767 .arrowheadPath{fill:#333333;}#mermaid-1783513246767 .edgePath .path{stroke:#333333;stroke-width:2.0px;}#mermaid-1783513246767 .flowchart-link{stroke:#333333;fill:none;}#mermaid-1783513246767 .edgeLabel{background-color:#e8e8e8;text-align:center;}#mermaid-1783513246767 .edgeLabel rect{opacity:0.5;background-color:#e8e8e8;fill:#e8e8e8;}#mermaid-1783513246767 .labelBkg{background-color:rgba(232, 232, 232, 0.5);}#mermaid-1783513246767 .cluster rect{fill:#ffffde;stroke:#aaaa33;stroke-width:1px;}#mermaid-1783513246767 .cluster text{fill:#333;}#mermaid-1783513246767 .cluster span,#mermaid-1783513246767 p{color:#333;}#mermaid-1783513246767 div.mermaidTooltip{position:absolute;text-align:center;max-width:200px;padding:2px;font-family:"trebuchet ms",verdana,arial,sans-serif;font-size:12px;background:hsl(80, 100%, 96.2745098039%);border:1px solid #aaaa33;border-radius:2px;pointer-events:none;z-index:100;}#mermaid-1783513246767 .flowchartTitleText{text-anchor:middle;font-size:18px;fill:#333;}#mermaid-1783513246767 :root{--mermaid-font-family:"trebuchet ms",verdana,arial,sans-serif;}</style><g><marker orient="auto" markerHeight="12" markerWidth="12" markerUnits="userSpaceOnUse" refY="5" refX="6" viewBox="0 0 10 10" class="marker flowchart" id="mermaid-1783513246767_flowchart-pointEnd"><path style="stroke-width: 1; stroke-dasharray: 1, 0;" class="arrowMarkerPath" d="M 0 0 L 10 5 L 0 10 z"/></marker><marker orient="auto" markerHeight="12" markerWidth="12" markerUnits="userSpaceOnUse" refY="5" refX="4.5" viewBox="0 0 10 10" class="marker flowchart" id="mermaid-1783513246767_flowchart-pointStart"><path style="stroke-width: 1; stroke-dasharray: 1, 0;" class="arrowMarkerPath" d="M 0 5 L 10 10 L 10 0 z"/></marker><marker orient="auto" markerHeight="11" markerWidth="11" markerUnits="userSpaceOnUse" refY="5" refX="11" viewBox="0 0 10 10" class="marker flowchart" id="mermaid-1783513246767_flowchart-circleEnd"><circle style="stroke-width: 1; stroke-dasharray: 1, 0;" class="arrowMarkerPath" r="5" cy="5" cx="5"/></marker><marker orient="auto" markerHeight="11" markerWidth="11" markerUnits="userSpaceOnUse" refY="5" refX="-1" viewBox="0 0 10 10" class="marker flowchart" id="mermaid-1783513246767_flowchart-circleStart"><circle style="stroke-width: 1; stroke-dasharray: 1, 0;" class="arrowMarkerPath" r="5" cy="5" cx="5"/></marker><marker orient="auto" markerHeight="11" markerWidth="11" markerUnits="userSpaceOnUse" refY="5.2" refX="12" viewBox="0 0 11 11" class="marker cross flowchart" id="mermaid-1783513246767_flowchart-crossEnd"><path style="stroke-width: 2; stroke-dasharray: 1, 0;" class="arrowMarkerPath" d="M 1,1 l 9,9 M 10,1 l -9,9"/></marker><marker orient="auto" markerHeight="11" markerWidth="11" markerUnits="userSpaceOnUse" refY="5.2" refX="-1" viewBox="0 0 11 11" class="marker cross flowchart" id="mermaid-1783513246767_flowchart-crossStart"><path style="stroke-width: 2; stroke-dasharray: 1, 0;" class="arrowMarkerPath" d="M 1,1 l 9,9 M 10,1 l -9,9"/></marker><g class="root"><g class="clusters"><g id="L4" class="cluster default flowchart-label"><rect height="111.4000015258789" width="414.5124969482422" y="809.0000038146973" x="482.60626220703125" ry="0" rx="0" style="fill:#dcfce7;stroke:#16a34a;"/><g transform="translate(628.981258392334, 809.0000038146973)" class="cluster-label"><foreignObject height="23.200000762939453" width="121.76250457763672"><div style="display: inline-block; white-space: nowrap;" xmlns="http://www.w3.org/1999/xhtml"><span class="nodeLabel">展示层 (Browser)</span></div></foreignObject></g></g><g id="L3" class="cluster default flowchart-label"><rect height="441.00000381469727" width="951.0937614440918" y="318" x="0" ry="0" rx="0" style="fill:#fef3c7;stroke:#d97706;"/><g transform="translate(390.740629196167, 318)" class="cluster-label"><foreignObject height="23.200000762939453" width="169.6125030517578"><div style="display: inline-block; white-space: nowrap;" xmlns="http://www.w3.org/1999/xhtml"><span class="nodeLabel">计算层 (RZ/G2L — Rust)</span></div></foreignObject></g></g><g id="L2" class="cluster default flowchart-label"><rect height="106.5999984741211" width="441.54998779296875" y="161.4000015258789" x="97.85000228881836" ry="0" rx="0" style=""/><g transform="translate(241.16249465942383, 161.4000015258789)" class="cluster-label"><foreignObject height="23.200000762939453" width="154.9250030517578"><div style="display: inline-block; white-space: nowrap;" xmlns="http://www.w3.org/1999/xhtml"><span class="nodeLabel">传输层 (WiFi 6 WLAN)</span></div></foreignObject></g></g><g id="L1" class="cluster default flowchart-label"><rect height="111.4000015258789" width="592.3249816894531" y="0" x="32.46250534057617" ry="0" rx="0" style="fill:#e0f2fe;stroke:#0284c7;"/><g transform="translate(252.63124465942383, 0)" class="cluster-label"><foreignObject height="23.200000762939453" width="151.9875030517578"><div style="display: inline-block; white-space: nowrap;" xmlns="http://www.w3.org/1999/xhtml"><span class="nodeLabel">感知层 (ESP32-C5 ×3)</span></div></foreignObject></g></g></g><g class="edgePaths"><path marker-end="url(#mermaid-1783513246767_flowchart-pointEnd)" style="fill:none;" class="edge-thickness-normal edge-pattern-solid flowchart-link LS-Rx LE-SP" id="L-Rx-SP-0" d="M361.088,381.2L361.088,385.367C361.088,389.533,361.088,397.867,361.088,405.317C361.088,412.767,361.088,419.333,361.088,422.617L361.088,425.9"/><path marker-end="url(#mermaid-1783513246767_flowchart-pointEnd)" style="fill:none;" class="edge-thickness-normal edge-pattern-solid flowchart-link LS-SP LE-VB" id="L-SP-VB-0" d="M386.96,469.4L392.604,473.567C398.248,477.733,409.537,486.067,415.181,493.517C420.825,500.967,420.825,507.533,420.825,510.817L420.825,514.1"/><path marker-end="url(#mermaid-1783513246767_flowchart-pointEnd)" style="fill:none;" class="edge-thickness-normal edge-pattern-solid flowchart-link LS-SP LE-TE" id="L-SP-TE-0" d="M273.338,469.362L254.128,473.535C234.919,477.708,196.5,486.054,177.291,497.577C158.081,509.1,158.081,523.8,158.081,538.5C158.081,553.2,158.081,567.9,176.399,579.229C194.716,590.558,231.35,598.517,249.668,602.496L267.985,606.475"/><path marker-end="url(#mermaid-1783513246767_flowchart-pointEnd)" style="fill:none;" class="edge-thickness-normal edge-pattern-solid flowchart-link LS-VB LE-TE" id="L-VB-TE-0" d="M420.825,557.6L420.825,561.767C420.825,565.933,420.825,574.267,415.892,582.075C410.958,589.884,401.091,597.168,396.158,600.81L391.224,604.452"/><path marker-end="url(#mermaid-1783513246767_flowchart-pointEnd)" style="fill:none;" class="edge-thickness-normal edge-pattern-solid flowchart-link LS-CB LE-LB" id="L-CB-LB-0" d="M631.638,557.6L631.638,561.767C631.638,565.933,631.638,574.267,644.487,582.72C657.336,591.174,683.034,599.748,695.883,604.035L708.732,608.323"/><path marker-end="url(#mermaid-1783513246767_flowchart-pointEnd)" style="fill:none;" class="edge-thickness-normal edge-pattern-solid flowchart-link LS-FB LE-LB" id="L-FB-LB-0" d="M832.3,557.6L832.3,561.767C832.3,565.933,832.3,574.267,825.951,582.522C819.601,590.777,806.903,598.954,800.553,603.042L794.204,607.131"/><path marker-end="url(#mermaid-1783513246767_flowchart-pointEnd)" style="fill:none;" class="edge-thickness-normal edge-pattern-solid flowchart-link LS-TE LE-EB" id="L-TE-EB-0" d="M268.344,644.841L246.225,649.167C224.106,653.494,179.869,662.147,157.75,669.757C135.631,677.367,135.631,683.933,135.631,687.217L135.631,690.5"/><path marker-end="url(#mermaid-1783513246767_flowchart-pointEnd)" style="fill:none;" class="edge-thickness-normal edge-pattern-solid flowchart-link LS-TE LE-AA" id="L-TE-AA-0" d="M361.088,645.8L361.088,649.967C361.088,654.133,361.088,662.467,361.088,669.917C361.088,677.367,361.088,683.933,361.088,687.217L361.088,690.5"/><path marker-end="url(#mermaid-1783513246767_flowchart-pointEnd)" style="fill:none;" class="edge-thickness-normal edge-pattern-solid flowchart-link LS-TE LE-WS" id="L-TE-WS-0" d="M411.641,645.8L422.669,649.967C433.697,654.133,455.753,662.467,497.14,671.484C538.526,680.501,599.243,690.203,629.602,695.053L659.96,699.904"/><path marker-end="url(#mermaid-1783513246767_flowchart-pointEnd)" style="fill:none;" class="edge-thickness-normal edge-pattern-solid flowchart-link LS-LB LE-WS" id="L-LB-WS-0" d="M763.813,643.4L763.813,647.967C763.813,652.533,763.813,661.667,762.972,669.939C762.132,678.21,760.452,685.621,759.612,689.326L758.771,693.031"/><path marker-end="url(#mermaid-1783513246767_flowchart-pointEnd)" style="fill:none;" class="edge-thickness-normal edge-pattern-solid flowchart-link LS-N1 LE-UDP" id="L-N1-UDP-0" d="M137.85,86.4L137.85,90.567C137.85,94.733,137.85,103.067,137.85,111.4C137.85,119.733,137.85,128.067,137.85,136.4C137.85,144.733,137.85,153.067,161.068,162.777C184.286,172.487,230.722,183.574,253.939,189.117L277.157,194.661"/><path marker-end="url(#mermaid-1783513246767_flowchart-pointEnd)" style="fill:none;" class="edge-thickness-normal edge-pattern-solid flowchart-link LS-N2 LE-UDP" id="L-N2-UDP-0" d="M328.625,86.4L328.625,90.567C328.625,94.733,328.625,103.067,328.625,111.4C328.625,119.733,328.625,128.067,328.625,136.4C328.625,144.733,328.625,153.067,330.703,160.646C332.781,168.224,336.938,175.049,339.016,178.461L341.094,181.873"/><path marker-end="url(#mermaid-1783513246767_flowchart-pointEnd)" style="fill:none;" class="edge-thickness-normal edge-pattern-solid flowchart-link LS-N3 LE-UDP" id="L-N3-UDP-0" d="M519.4,86.4L519.4,90.567C519.4,94.733,519.4,103.067,519.4,111.4C519.4,119.733,519.4,128.067,519.4,136.4C519.4,144.733,519.4,153.067,506.981,161.415C494.562,169.762,469.724,178.125,457.305,182.306L444.885,186.487"/><path marker-end="url(#mermaid-1783513246767_flowchart-pointEnd)" style="fill:none;" class="edge-thickness-normal edge-pattern-solid flowchart-link LS-UDP LE-Rx" id="L-UDP-Rx-0" d="M361.088,243L361.088,247.167C361.088,251.333,361.088,259.667,361.088,268C361.088,276.333,361.088,284.667,361.088,293C361.088,301.333,361.088,309.667,361.088,317.117C361.088,324.567,361.088,331.133,361.088,334.417L361.088,337.7"/><path marker-end="url(#mermaid-1783513246767_flowchart-pointEnd)" style="fill:none;" class="edge-thickness-normal edge-pattern-solid flowchart-link LS-WS LE-Dash" id="L-WS-Dash-0" d="M690.002,731.6L672.552,736.167C655.103,740.733,620.205,749.867,602.756,758.6C585.306,767.333,585.306,775.667,585.306,784C585.306,792.333,585.306,800.667,585.306,808.117C585.306,815.567,585.306,822.133,585.306,825.417L585.306,828.7"/><path marker-end="url(#mermaid-1783513246767_flowchart-pointEnd)" style="fill:none;" class="edge-thickness-normal edge-pattern-solid flowchart-link LS-WS LE-Skel" id="L-WS-Skel-0" d="M764.7,731.6L767.677,736.167C770.654,740.733,776.608,749.867,779.585,758.6C782.563,767.333,782.563,775.667,782.563,784C782.563,792.333,782.563,800.667,782.563,808.117C782.563,815.567,782.563,822.133,782.563,825.417L782.563,828.7"/></g><g class="edgeLabels"><g class="edgeLabel"><g transform="translate(0, 0)" class="label"><foreignObject height="0" width="0"><div style="display: inline-block; white-space: nowrap;" xmlns="http://www.w3.org/1999/xhtml"><span class="edgeLabel"></span></div></foreignObject></g></g><g class="edgeLabel"><g transform="translate(0, 0)" class="label"><foreignObject height="0" width="0"><div style="display: inline-block; white-space: nowrap;" xmlns="http://www.w3.org/1999/xhtml"><span class="edgeLabel"></span></div></foreignObject></g></g><g class="edgeLabel"><g transform="translate(0, 0)" class="label"><foreignObject height="0" width="0"><div style="display: inline-block; white-space: nowrap;" xmlns="http://www.w3.org/1999/xhtml"><span class="edgeLabel"></span></div></foreignObject></g></g><g class="edgeLabel"><g transform="translate(0, 0)" class="label"><foreignObject height="0" width="0"><div style="display: inline-block; white-space: nowrap;" xmlns="http://www.w3.org/1999/xhtml"><span class="edgeLabel"></span></div></foreignObject></g></g><g class="edgeLabel"><g transform="translate(0, 0)" class="label"><foreignObject height="0" width="0"><div style="display: inline-block; white-space: nowrap;" xmlns="http://www.w3.org/1999/xhtml"><span class="edgeLabel"></span></div></foreignObject></g></g><g class="edgeLabel"><g transform="translate(0, 0)" class="label"><foreignObject height="0" width="0"><div style="display: inline-block; white-space: nowrap;" xmlns="http://www.w3.org/1999/xhtml"><span class="edgeLabel"></span></div></foreignObject></g></g><g class="edgeLabel"><g transform="translate(0, 0)" class="label"><foreignObject height="0" width="0"><div style="display: inline-block; white-space: nowrap;" xmlns="http://www.w3.org/1999/xhtml"><span class="edgeLabel"></span></div></foreignObject></g></g><g class="edgeLabel"><g transform="translate(0, 0)" class="label"><foreignObject height="0" width="0"><div style="display: inline-block; white-space: nowrap;" xmlns="http://www.w3.org/1999/xhtml"><span class="edgeLabel"></span></div></foreignObject></g></g><g class="edgeLabel"><g transform="translate(0, 0)" class="label"><foreignObject height="0" width="0"><div style="display: inline-block; white-space: nowrap;" xmlns="http://www.w3.org/1999/xhtml"><span class="edgeLabel"></span></div></foreignObject></g></g><g class="edgeLabel"><g transform="translate(0, 0)" class="label"><foreignObject height="0" width="0"><div style="display: inline-block; white-space: nowrap;" xmlns="http://www.w3.org/1999/xhtml"><span class="edgeLabel"></span></div></foreignObject></g></g><g class="edgeLabel"><g transform="translate(0, 0)" class="label"><foreignObject height="0" width="0"><div style="display: inline-block; white-space: nowrap;" xmlns="http://www.w3.org/1999/xhtml"><span class="edgeLabel"></span></div></foreignObject></g></g><g class="edgeLabel"><g transform="translate(0, 0)" class="label"><foreignObject height="0" width="0"><div style="display: inline-block; white-space: nowrap;" xmlns="http://www.w3.org/1999/xhtml"><span class="edgeLabel"></span></div></foreignObject></g></g><g class="edgeLabel"><g transform="translate(0, 0)" class="label"><foreignObject height="0" width="0"><div style="display: inline-block; white-space: nowrap;" xmlns="http://www.w3.org/1999/xhtml"><span class="edgeLabel"></span></div></foreignObject></g></g><g class="edgeLabel"><g transform="translate(0, 0)" class="label"><foreignObject height="0" width="0"><div style="display: inline-block; white-space: nowrap;" xmlns="http://www.w3.org/1999/xhtml"><span class="edgeLabel"></span></div></foreignObject></g></g><g class="edgeLabel"><g transform="translate(0, 0)" class="label"><foreignObject height="0" width="0"><div style="display: inline-block; white-space: nowrap;" xmlns="http://www.w3.org/1999/xhtml"><span class="edgeLabel"></span></div></foreignObject></g></g><g class="edgeLabel"><g transform="translate(0, 0)" class="label"><foreignObject height="0" width="0"><div style="display: inline-block; white-space: nowrap;" xmlns="http://www.w3.org/1999/xhtml"><span class="edgeLabel"></span></div></foreignObject></g></g></g><g class="nodes"><g transform="translate(585.3062591552734, 864.7000045776367)" data-id="Dash" data-node="true" id="flowchart-Dash-31" class="node default default flowchart-label"><rect height="61.400001525878906" width="135.4000015258789" y="-30.700000762939453" x="-67.70000076293945" ry="0" rx="0" style="" class="basic label-container"/><g transform="translate(-60.20000076293945, -23.200000762939453)" style="" class="label"><rect/><foreignObject height="46.400001525878906" width="120.4000015258789"><div style="display: inline-block; white-space: nowrap;" xmlns="http://www.w3.org/1999/xhtml"><span class="nodeLabel">分诊仪表盘<br />伤员地图+热力图</span></div></foreignObject></g></g><g transform="translate(782.5625076293945, 864.7000045776367)" data-id="Skel" data-node="true" id="flowchart-Skel-32" class="node default default flowchart-label"><rect height="61.400001525878906" width="159.1125030517578" y="-30.700000762939453" x="-79.5562515258789" ry="0" rx="0" style="" class="basic label-container"/><g transform="translate(-72.0562515258789, -23.200000762939453)" style="" class="label"><rect/><foreignObject height="46.400001525878906" width="144.1125030517578"><div style="display: inline-block; white-space: nowrap;" xmlns="http://www.w3.org/1999/xhtml"><span class="nodeLabel">3D骨架<br />Three.js·17 COCO点</span></div></foreignObject></g></g><g transform="translate(361.0875015258789, 362.1000003814697)" data-id="Rx" data-node="true" id="flowchart-Rx-4" class="node default default flowchart-label"><rect height="38.20000076293945" width="142.1500015258789" y="-19.100000381469727" x="-71.07500076293945" ry="0" rx="0" style="" class="basic label-container"/><g transform="translate(-63.57500076293945, -11.600000381469727)" style="" class="label"><rect/><foreignObject height="23.200000762939453" width="127.1500015258789"><div style="display: inline-block; white-space: nowrap;" xmlns="http://www.w3.org/1999/xhtml"><span class="nodeLabel">UDP接收 + 帧解析</span></div></foreignObject></g></g><g transform="translate(361.0875015258789, 450.3000011444092)" data-id="SP" data-node="true" id="flowchart-SP-5" class="node default default flowchart-label"><rect height="38.20000076293945" width="175.5" y="-19.100000381469727" x="-87.75" ry="0" rx="0" style="" class="basic label-container"/><g transform="translate(-80.25, -11.600000381469727)" style="" class="label"><rect/><foreignObject height="23.200000762939453" width="160.5"><div style="display: inline-block; white-space: nowrap;" xmlns="http://www.w3.org/1999/xhtml"><span class="nodeLabel">SignalPipeline 5级清洗</span></div></foreignObject></g></g><g transform="translate(420.82500076293945, 538.5000019073486)" data-id="VB" data-node="true" id="flowchart-VB-6" class="node default default flowchart-label"><rect height="38.20000076293945" width="168.9499969482422" y="-19.100000381469727" x="-84.4749984741211" ry="0" rx="0" style="" class="basic label-container"/><g transform="translate(-76.9749984741211, -11.600000381469727)" style="" class="label"><rect/><foreignObject height="23.200000762939453" width="153.9499969482422"><div style="display: inline-block; white-space: nowrap;" xmlns="http://www.w3.org/1999/xhtml"><span class="nodeLabel">VitalsBridge 生命体征</span></div></foreignObject></g></g><g transform="translate(631.6375007629395, 538.5000019073486)" data-id="CB" data-node="true" id="flowchart-CB-7" class="node default default flowchart-label"><rect height="38.20000076293945" width="152.6750030517578" y="-19.100000381469727" x="-76.3375015258789" ry="0" rx="0" style="" class="basic label-container"/><g transform="translate(-68.8375015258789, -11.600000381469727)" style="" class="label"><rect/><foreignObject height="23.200000762939453" width="137.6750030517578"><div style="display: inline-block; white-space: nowrap;" xmlns="http://www.w3.org/1999/xhtml"><span class="nodeLabel">CIRBridge 信道估计</span></div></foreignObject></g></g><g transform="translate(832.3000068664551, 538.5000019073486)" data-id="FB" data-node="true" id="flowchart-FB-8" class="node default default flowchart-label"><rect height="38.20000076293945" width="148.65000915527344" y="-19.100000381469727" x="-74.32500457763672" ry="0" rx="0" style="" class="basic label-container"/><g transform="translate(-66.82500457763672, -11.600000381469727)" style="" class="label"><rect/><foreignObject height="23.200000762939453" width="133.65000915527344"><div style="display: inline-block; white-space: nowrap;" xmlns="http://www.w3.org/1999/xhtml"><span class="nodeLabel">FieldBridge 信号场</span></div></foreignObject></g></g><g transform="translate(361.0875015258789, 626.7000026702881)" data-id="TE" data-node="true" id="flowchart-TE-9" class="node default default flowchart-label"><rect height="38.20000076293945" width="185.4875030517578" y="-19.100000381469727" x="-92.7437515258789" ry="0" rx="0" style="" class="basic label-container"/><g transform="translate(-85.2437515258789, -11.600000381469727)" style="" class="label"><rect/><foreignObject height="23.200000762939453" width="170.4875030517578"><div style="display: inline-block; white-space: nowrap;" xmlns="http://www.w3.org/1999/xhtml"><span class="nodeLabel">TriageEngine START分诊</span></div></foreignObject></g></g><g transform="translate(135.6312484741211, 714.9000034332275)" data-id="EB" data-node="true" id="flowchart-EB-10" class="node default default flowchart-label"><rect height="38.20000076293945" width="201.2624969482422" y="-19.100000381469727" x="-100.6312484741211" ry="0" rx="0" style="" class="basic label-container"/><g transform="translate(-93.1312484741211, -11.600000381469727)" style="" class="label"><rect/><foreignObject height="23.200000762939453" width="186.2624969482422"><div style="display: inline-block; white-space: nowrap;" xmlns="http://www.w3.org/1999/xhtml"><span class="nodeLabel">EdgeModuleEngine 19模块</span></div></foreignObject></g></g><g transform="translate(763.8125038146973, 626.7000026702881)" data-id="LB" data-node="true" id="flowchart-LB-11" class="node default default flowchart-label"><rect height="33.39999961853027" width="186.52500915527344" y="-16.699999809265137" x="-93.26250457763672" ry="0" rx="0" style="" class="basic label-container"/><g transform="translate(-85.76250457763672, -9.199999809265137)" style="" class="label"><rect/><foreignObject height="18.399999618530273" width="171.52500915527344"><div style="display: inline-block; white-space: nowrap;" xmlns="http://www.w3.org/1999/xhtml"><span class="nodeLabel">LocBridge + TrackBridge</span></div></foreignObject></g></g><g transform="translate(361.0875015258789, 714.9000034332275)" data-id="AA" data-node="true" id="flowchart-AA-12" class="node default flowchart-label"><rect height="38.20000076293945" width="149.65000915527344" y="-19.100000381469727" x="-74.82500457763672" ry="0" rx="0" style="" class="basic label-container"/><g transform="translate(-67.32500457763672, -11.600000381469727)" style="" class="label"><rect/><foreignObject height="23.200000762939453" width="134.65000915527344"><div style="display: inline-block; white-space: nowrap;" xmlns="http://www.w3.org/1999/xhtml"><span class="nodeLabel">MedAgent LLM协调</span></div></foreignObject></g></g><g transform="translate(753.8125038146973, 714.9000034332275)" data-id="WS" data-node="true" id="flowchart-WS-13" class="node default default flowchart-label"><rect height="33.39999961853027" width="177.2375030517578" y="-16.699999809265137" x="-88.6187515258789" ry="0" rx="0" style="" class="basic label-container"/><g transform="translate(-81.1187515258789, -9.199999809265137)" style="" class="label"><rect/><foreignObject height="18.399999618530273" width="162.2375030517578"><div style="display: inline-block; white-space: nowrap;" xmlns="http://www.w3.org/1999/xhtml"><span class="nodeLabel">Axum Server HTTP+WS</span></div></foreignObject></g></g><g transform="translate(361.0875015258789, 214.70000076293945)" data-id="UDP" data-node="true" id="flowchart-UDP-3" class="node default default flowchart-label"><rect height="56.60000228881836" width="157.5500030517578" y="-28.30000114440918" x="-78.7750015258789" ry="0" rx="0" style="" class="basic label-container"/><g transform="translate(-71.2750015258789, -20.80000114440918)" style="" class="label"><rect/><foreignObject height="41.60000228881836" width="142.5500030517578"><div style="display: inline-block; white-space: nowrap;" xmlns="http://www.w3.org/1999/xhtml"><span class="nodeLabel">UDP :5005<br />信道跳转 ch{1,6,11}</span></div></foreignObject></g></g><g transform="translate(137.85000228881836, 55.70000076293945)" data-id="N1" data-node="true" id="flowchart-N1-0" class="node default default flowchart-label"><rect height="61.400001525878906" width="140.7750015258789" y="-30.700000762939453" x="-70.38750076293945" ry="0" rx="0" style="" class="basic label-container"/><g transform="translate(-62.88750076293945, -23.200000762939453)" style="" class="label"><rect/><foreignObject height="46.400001525878906" width="125.7750015258789"><div style="display: inline-block; white-space: nowrap;" xmlns="http://www.w3.org/1999/xhtml"><span class="nodeLabel">节点1<br />242子载波·PSRAM</span></div></foreignObject></g></g><g transform="translate(328.62499618530273, 55.70000076293945)" data-id="N2" data-node="true" id="flowchart-N2-1" class="node default default flowchart-label"><rect height="61.400001525878906" width="140.7750015258789" y="-30.700000762939453" x="-70.38750076293945" ry="0" rx="0" style="" class="basic label-container"/><g transform="translate(-62.88750076293945, -23.200000762939453)" style="" class="label"><rect/><foreignObject height="46.400001525878906" width="125.7750015258789"><div style="display: inline-block; white-space: nowrap;" xmlns="http://www.w3.org/1999/xhtml"><span class="nodeLabel">节点2<br />242子载波·PSRAM</span></div></foreignObject></g></g><g transform="translate(519.3999900817871, 55.70000076293945)" data-id="N3" data-node="true" id="flowchart-N3-2" class="node default flowchart-label"><rect height="61.400001525878906" width="140.7750015258789" y="-30.700000762939453" x="-70.38750076293945" ry="0" rx="0" style="" class="basic label-container"/><g transform="translate(-62.88750076293945, -23.200000762939453)" style="" class="label"><rect/><foreignObject height="46.400001525878906" width="125.7750015258789"><div style="display: inline-block; white-space: nowrap;" xmlns="http://www.w3.org/1999/xhtml"><span class="nodeLabel">节点3<br />242子载波·PSRAM</span></div></foreignObject></g></g></g></g></g></svg>